ffmpeg started on 2025-06-19 at 10:39:06
Report written to "D:\Convert\FFMetrics\reports\psnr_report-6.txt"
Log level: 32
Command line:
ffmpeg -hide_banner -nostdin -i "G:\\\xc0\xed\xe8\xec\xe5\\[\xd2\xee\xef-4]\\RErideD - \xc4\xe5\xf0\xf0\xe8\xe4\xe0, \xef\xee\xea\xee\xf0\xe8\xe2\xf8\xe8\xe9 \xe2\xf0\xe5\xec\xff\\RErideD_Koku_Koe_no_Derrida_[08]_[AniLibria_TV]_[WEBRip_720p]_HEVC.mkv" -i "G:\\\xc0\xed\xe8\xec\xe5\\[\xd2\xee\xef-4]\\RErideD - \xc4\xe5\xf0\xf0\xe8\xe4\xe0, \xef\xee\xea\xee\xf0\xe8\xe2\xf8\xe8\xe9 \xe2\xf0\xe5\xec\xff\\RErideD_Koku_Koe_no_Derrida_[08]_[AniLibria_TV]_[WEBRip_720p].mkv" -lavfi "[0:v]settb=AVTB,setpts=PTS-STARTPTS,format=pix_fmts=yuv420p10,fps=24000/1001,scale=1280:720:flags=bicubic[main];[1:v]settb=AVTB,setpts=PTS-STARTPTS,format=pix_fmts=yuv420p,fps=24000/1001,scale=1280:720:flags=bicubic[ref];[main][ref]psnr=eof_action=endall:stats_file='D\\:/Convert/FFMetrics/logs/psnr_logfile-6.txt'" -f null -
Input #0, matroska,webm, from 'G:\Аниме\[Топ-4]\RErideD - Деррида, покоривший время\RErideD_Koku_Koe_no_Derrida_[08]_[AniLibria_TV]_[WEBRip_720p]_HEVC.mkv':
  Metadata:
    ENCODER         : Lavf61.7.100
  Duration: 00:23:39.96, start: -0.021000, bitrate: 685 kb/s
  Stream #0:0(jpn): Video: hevc (Main 10), yuv420p10le(tv, bt709, progressive), 1280x720 [SAR 1:1 DAR 16:9], 23.98 fps, 23.98 tbr, 1k tbn (default)
      Metadata:
        ENCODER         : Lavc61.19.100 libx265
        BPS             : 486323
        DURATION        : 00:23:39.877708333
        NUMBER_OF_FRAMES: 34043
        NUMBER_OF_BYTES : 86314912
        _STATISTICS_WRITING_APP: mkvpropedit v66.0.0 ('Josie') 64-bit
        _STATISTICS_WRITING_DATE_UTC: 2025-06-17 15:52:24
        _STATISTICS_TAGS: BPS DURATION NUMBER_OF_FRAMES NUMBER_OF_BYTES
  Stream #0:1(rus): Audio: aac (LC), 48000 Hz, stereo, fltp (default) (forced)
      Metadata:
        title           : AniLibria.TV
        ENCODER         : Lavc61.19.100 aac
        BPS             : 195341
        DURATION        : 00:23:39.903000000
        NUMBER_OF_FRAMES: 66559
        NUMBER_OF_BYTES : 34670672
        _STATISTICS_WRITING_APP: mkvpropedit v66.0.0 ('Josie') 64-bit
        _STATISTICS_WRITING_DATE_UTC: 2025-06-17 15:52:24
        _STATISTICS_TAGS: BPS DURATION NUMBER_OF_FRAMES NUMBER_OF_BYTES
  Stream #0:2(rus): Subtitle: ass (ssa) (default) (forced)
      Metadata:
        title           : Надписи
        BPS             : 7
        DURATION        : 00:22:08.840000000
        NUMBER_OF_FRAMES: 11
        NUMBER_OF_BYTES : 1246
        _STATISTICS_WRITING_APP: mkvpropedit v66.0.0 ('Josie') 64-bit
        _STATISTICS_WRITING_DATE_UTC: 2025-06-17 15:52:24
        _STATISTICS_TAGS: BPS DURATION NUMBER_OF_FRAMES NUMBER_OF_BYTES
  Stream #0:3(rus): Subtitle: ass (ssa)
      Metadata:
        title           : Полные субтитры
        BPS             : 177
        DURATION        : 00:20:47.470000000
        NUMBER_OF_FRAMES: 372
        NUMBER_OF_BYTES : 27726
        _STATISTICS_WRITING_APP: mkvpropedit v66.0.0 ('Josie') 64-bit
        _STATISTICS_WRITING_DATE_UTC: 2025-06-17 15:52:24
        _STATISTICS_TAGS: BPS DURATION NUMBER_OF_FRAMES NUMBER_OF_BYTES
Input #1, matroska,webm, from 'G:\Аниме\[Топ-4]\RErideD - Деррида, покоривший время\RErideD_Koku_Koe_no_Derrida_[08]_[AniLibria_TV]_[WEBRip_720p].mkv':
  Metadata:
    encoder         : libebml v1.4.2 + libmatroska v1.6.4
    creation_time   : 2024-12-15T11:01:44.000000Z
  Duration: 00:23:39.96, start: 0.000000, bitrate: 1931 kb/s
  Stream #1:0(jpn): Video: h264 (High), yuv420p(progressive), 1280x720 [SAR 1:1 DAR 16:9], 23.98 fps, 23.98 tbr, 1k tbn (default)
      Metadata:
        BPS             : 1730630
        DURATION        : 00:23:39.878000000
        NUMBER_OF_FRAMES: 34043
        NUMBER_OF_BYTES : 307160508
        _STATISTICS_WRITING_APP: mkvmerge v66.0.0 ('Josie') 64-bit
        _STATISTICS_WRITING_DATE_UTC: 2024-12-15 11:01:44
        _STATISTICS_TAGS: BPS DURATION NUMBER_OF_FRAMES NUMBER_OF_BYTES
  Stream #1:1(rus): Audio: aac (LC), 48000 Hz, stereo, fltp (default) (forced)
      Metadata:
        title           : AniLibria.TV
        BPS             : 195880
        DURATION        : 00:23:39.903000000
        NUMBER_OF_FRAMES: 66558
        NUMBER_OF_BYTES : 34766336
        _STATISTICS_WRITING_APP: mkvmerge v66.0.0 ('Josie') 64-bit
        _STATISTICS_WRITING_DATE_UTC: 2024-12-15 11:01:44
        _STATISTICS_TAGS: BPS DURATION NUMBER_OF_FRAMES NUMBER_OF_BYTES
  Stream #1:2(rus): Subtitle: ass (ssa) (default) (forced)
      Metadata:
        title           : Надписи
        BPS             : 7
        DURATION        : 00:22:08.840000000
        NUMBER_OF_FRAMES: 11
        NUMBER_OF_BYTES : 1246
        _STATISTICS_WRITING_APP: mkvmerge v66.0.0 ('Josie') 64-bit
        _STATISTICS_WRITING_DATE_UTC: 2024-12-15 11:01:44
        _STATISTICS_TAGS: BPS DURATION NUMBER_OF_FRAMES NUMBER_OF_BYTES
  Stream #1:3(rus): Subtitle: ass (ssa)
      Metadata:
        title           : Полные субтитры
        BPS             : 177
        DURATION        : 00:20:47.470000000
        NUMBER_OF_FRAMES: 372
        NUMBER_OF_BYTES : 27726
        _STATISTICS_WRITING_APP: mkvmerge v66.0.0 ('Josie') 64-bit
        _STATISTICS_WRITING_DATE_UTC: 2024-12-15 11:01:44
        _STATISTICS_TAGS: BPS DURATION NUMBER_OF_FRAMES NUMBER_OF_BYTES
  Stream #1:4: Attachment: ttf
      Metadata:
        filename        : OpenSans-Semibold.ttf
        mimetype        : application/x-truetype-font
  Stream #1:5: Attachment: ttf
      Metadata:
        filename        : v_MightyZeo2.0_v1.07.ttf
        mimetype        : application/x-truetype-font
  Stream #1:6: Attachment: ttf
      Metadata:
        filename        : OpenSans-Semibold.ttf
        mimetype        : application/x-truetype-font
Stream mapping:
  Stream #0:0 (hevc) -> settb:default
  Stream #1:0 (h264) -> settb:default
  psnr:default -> Stream #0:0 (wrapped_avframe)
  Stream #0:1 -> #0:1 (aac (native) -> pcm_s16le (native))
[swscaler @ 00000168d092eb80] No accelerated colorspace conversion found from yuv420p to bgr48le.
[swscaler @ 00000168d0a748c0] No accelerated colorspace conversion found from yuv420p to bgr48le.
[swscaler @ 00000168d0c1fe80] No accelerated colorspace conversion found from yuv420p to bgr48le.
[swscaler @ 00000168ce4bcdc0] No accelerated colorspace conversion found from yuv420p to bgr48le.
[swscaler @ 00000168d0e1c7c0] No accelerated colorspace conversion found from yuv420p to bgr48le.
[swscaler @ 00000168d0ed3840] No accelerated colorspace conversion found from yuv420p to bgr48le.
[swscaler @ 00000168d101e040] No accelerated colorspace conversion found from yuv420p to bgr48le.
[swscaler @ 00000168d10726c0] No accelerated colorspace conversion found from yuv420p to bgr48le.
[swscaler @ 00000168ce4dddc0] No accelerated colorspace conversion found from yuv420p to bgr48le.
[swscaler @ 00000168d3d02bc0] No accelerated colorspace conversion found from yuv420p to bgr48le.
[swscaler @ 00000168d3d5e040] No accelerated colorspace conversion found from yuv420p to bgr48le.
[swscaler @ 00000168d3dc7040] No accelerated colorspace conversion found from yuv420p to bgr48le.
[swscaler @ 00000168d3e42040] No accelerated colorspace conversion found from yuv420p to bgr48le.
[swscaler @ 00000168ce775980] No accelerated colorspace conversion found from yuv420p to bgr48le.
[swscaler @ 00000168d3f1e040] No accelerated colorspace conversion found from yuv420p to bgr48le.
[swscaler @ 00000168d3f69480] No accelerated colorspace conversion found from yuv420p to bgr48le.
Output #0, null, to 'pipe:':
  Metadata:
    encoder         : Lavf61.7.100
  Stream #0:0: Video: wrapped_avframe, yuv420p10le(tv, bt709, progressive), 1280x720 [SAR 1:1 DAR 16:9], q=2-31, 200 kb/s, 23.98 fps, 23.98 tbn
      Metadata:
        encoder         : Lavc61.19.100 wrapped_avframe
  Stream #0:1(rus): Audio: pcm_s16le, 48000 Hz, stereo, s16, 1536 kb/s (default) (forced)
      Metadata:
        title           : AniLibria.TV
        _STATISTICS_TAGS: BPS DURATION NUMBER_OF_FRAMES NUMBER_OF_BYTES
        BPS             : 195341
        DURATION        : 00:23:39.903000000
        NUMBER_OF_FRAMES: 66559
        NUMBER_OF_BYTES : 34670672
        _STATISTICS_WRITING_APP: mkvpropedit v66.0.0 ('Josie') 64-bit
        _STATISTICS_WRITING_DATE_UTC: 2025-06-17 15:52:24
        encoder         : Lavc61.19.100 pcm_s16le
frame=   82 fps=0.0 q=-0.0 size=N/A time=00:00:03.42 bitrate=N/A speed=6.71x    frame=  176 fps=171 q=-0.0 size=N/A time=00:00:07.34 bitrate=N/A speed=7.11x    frame=  262 fps=170 q=-0.0 size=N/A time=00:00:10.92 bitrate=N/A speed= 7.1x    frame=  350 fps=170 q=-0.0 size=N/A time=00:00:14.59 bitrate=N/A speed=7.07x    frame=  442 fps=172 q=-0.0 size=N/A time=00:00:18.43 bitrate=N/A speed=7.17x    frame=  524 fps=169 q=-0.0 size=N/A time=00:00:21.85 bitrate=N/A speed=7.06x    frame=  633 fps=176 q=-0.0 size=N/A time=00:00:26.40 bitrate=N/A speed=7.33x    frame=  724 fps=176 q=-0.0 size=N/A time=00:00:30.19 bitrate=N/A speed=7.32x    frame=  820 fps=177 q=-0.0 size=N/A time=00:00:34.20 bitrate=N/A speed=7.38x    frame=  920 fps=178 q=-0.0 size=N/A time=00:00:38.37 bitrate=N/A speed=7.44x    frame= 1013 fps=179 q=-0.0 size=N/A time=00:00:42.25 bitrate=N/A speed=7.45x    frame= 1106 fps=179 q=-0.0 size=N/A time=00:00:46.12 bitrate=N/A speed=7.46x    frame= 1204 fps=180 q=-0.0 size=N/A time=00:00:50.21 bitrate=N/A speed=7.51x    frame= 1296 fps=180 q=-0.0 size=N/A time=00:00:54.05 bitrate=N/A speed=7.49x    frame= 1389 fps=180 q=-0.0 size=N/A time=00:00:57.93 bitrate=N/A speed= 7.5x    frame= 1492 fps=181 q=-0.0 size=N/A time=00:01:02.22 bitrate=N/A speed=7.54x    frame= 1590 fps=181 q=-0.0 size=N/A time=00:01:06.31 bitrate=N/A speed=7.57x    frame= 1687 fps=182 q=-0.0 size=N/A time=00:01:10.36 bitrate=N/A speed=7.59x    frame= 1781 fps=182 q=-0.0 size=N/A time=00:01:14.28 bitrate=N/A speed=7.59x    frame= 1879 fps=182 q=-0.0 size=N/A time=00:01:18.36 bitrate=N/A speed= 7.6x    frame= 1979 fps=183 q=-0.0 size=N/A time=00:01:22.54 bitrate=N/A speed=7.63x    frame= 2078 fps=183 q=-0.0 size=N/A time=00:01:26.66 bitrate=N/A speed=7.64x    frame= 2176 fps=184 q=-0.0 size=N/A time=00:01:30.75 bitrate=N/A speed=7.66x    frame= 2276 fps=184 q=-0.0 size=N/A time=00:01:34.92 bitrate=N/A speed=7.68x    frame= 2375 fps=184 q=-0.0 size=N/A time=00:01:39.05 bitrate=N/A speed=7.69x    frame= 2462 fps=184 q=-0.0 size=N/A time=00:01:42.68 bitrate=N/A speed=7.66x    frame= 2560 fps=184 q=-0.0 size=N/A time=00:01:46.77 bitrate=N/A speed=7.68x    frame= 2666 fps=185 q=-0.0 size=N/A time=00:01:51.19 bitrate=N/A speed= 7.7x    frame= 2763 fps=185 q=-0.0 size=N/A time=00:01:55.24 bitrate=N/A speed=7.71x    frame= 2859 fps=185 q=-0.0 size=N/A time=00:01:59.24 bitrate=N/A speed=7.71x    frame= 2945 fps=184 q=-0.0 size=N/A time=00:02:02.83 bitrate=N/A speed=7.69x    frame= 3053 fps=185 q=-0.0 size=N/A time=00:02:07.33 bitrate=N/A speed=7.72x    frame= 3148 fps=185 q=-0.0 size=N/A time=00:02:11.29 bitrate=N/A speed=7.72x    frame= 3244 fps=185 q=-0.0 size=N/A time=00:02:15.30 bitrate=N/A speed=7.72x    frame= 3343 fps=185 q=-0.0 size=N/A time=00:02:19.43 bitrate=N/A speed=7.73x    frame= 3440 fps=185 q=-0.0 size=N/A time=00:02:23.47 bitrate=N/A speed=7.73x    frame= 3542 fps=186 q=-0.0 size=N/A time=00:02:27.73 bitrate=N/A speed=7.74x    frame= 3638 fps=186 q=-0.0 size=N/A time=00:02:31.73 bitrate=N/A speed=7.75x    frame= 3735 fps=186 q=-0.0 size=N/A time=00:02:35.78 bitrate=N/A speed=7.75x    frame= 3832 fps=186 q=-0.0 size=N/A time=00:02:39.82 bitrate=N/A speed=7.75x    frame= 3920 fps=185 q=-0.0 size=N/A time=00:02:43.49 bitrate=N/A speed=7.74x    frame= 4023 fps=186 q=-0.0 size=N/A time=00:02:47.79 bitrate=N/A speed=7.75x    frame= 4121 fps=186 q=-0.0 size=N/A time=00:02:51.88 bitrate=N/A speed=7.75x    frame= 4208 fps=186 q=-0.0 size=N/A time=00:02:55.50 bitrate=N/A speed=7.74x    frame= 4312 fps=186 q=-0.0 size=N/A time=00:02:59.84 bitrate=N/A speed=7.75x    frame= 4415 fps=186 q=-0.0 size=N/A time=00:03:04.14 bitrate=N/A speed=7.76x    frame= 4507 fps=186 q=-0.0 size=N/A time=00:03:07.97 bitrate=N/A speed=7.76x    frame= 4604 fps=186 q=-0.0 size=N/A time=00:03:12.02 bitrate=N/A speed=7.76x    frame= 4715 fps=187 q=-0.0 size=N/A time=00:03:16.65 bitrate=N/A speed=7.78x    frame= 4804 fps=186 q=-0.0 size=N/A time=00:03:20.36 bitrate=N/A speed=7.77x    frame= 4909 fps=187 q=-0.0 size=N/A time=00:03:24.74 bitrate=N/A speed=7.79x    frame= 5009 fps=187 q=-0.0 size=N/A time=00:03:28.91 bitrate=N/A speed=7.79x    frame= 5104 fps=187 q=-0.0 size=N/A time=00:03:32.87 bitrate=N/A speed=7.79x    frame= 5204 fps=187 q=-0.0 size=N/A time=00:03:37.05 bitrate=N/A speed=7.79x    frame= 5301 fps=187 q=-0.0 size=N/A time=00:03:41.09 bitrate=N/A speed= 7.8x    frame= 5391 fps=187 q=-0.0 size=N/A time=00:03:44.84 bitrate=N/A speed=7.79x    frame= 5492 fps=187 q=-0.0 size=N/A time=00:03:49.06 bitrate=N/A speed=7.79x    frame= 5594 fps=187 q=-0.0 size=N/A time=00:03:53.31 bitrate=N/A speed= 7.8x    frame= 5691 fps=187 q=-0.0 size=N/A time=00:03:57.36 bitrate=N/A speed=7.81x    frame= 5788 fps=187 q=-0.0 size=N/A time=00:04:01.40 bitrate=N/A speed= 7.8x    frame= 5887 fps=187 q=-0.0 size=N/A time=00:04:05.53 bitrate=N/A speed=7.81x    frame= 5987 fps=187 q=-0.0 size=N/A time=00:04:09.70 bitrate=N/A speed=7.81x    frame= 6088 fps=187 q=-0.0 size=N/A time=00:04:13.92 bitrate=N/A speed=7.82x    frame= 6182 fps=187 q=-0.0 size=N/A time=00:04:17.84 bitrate=N/A speed=7.82x    frame= 6274 fps=187 q=-0.0 size=N/A time=00:04:21.67 bitrate=N/A speed=7.81x    frame= 6379 fps=187 q=-0.0 size=N/A time=00:04:26.05 bitrate=N/A speed=7.82x    frame= 6475 fps=187 q=-0.0 size=N/A time=00:04:30.06 bitrate=N/A speed=7.82x    frame= 6567 fps=187 q=-0.0 size=N/A time=00:04:33.89 bitrate=N/A speed=7.81x    frame= 6668 fps=187 q=-0.0 size=N/A time=00:04:38.11 bitrate=N/A speed=7.82x    frame= 6755 fps=187 q=-0.0 size=N/A time=00:04:41.73 bitrate=N/A speed=7.81x    frame= 6864 fps=188 q=-0.0 size=N/A time=00:04:46.28 bitrate=N/A speed=7.82x    frame= 6963 fps=188 q=-0.0 size=N/A time=00:04:50.41 bitrate=N/A speed=7.82x    frame= 7056 fps=188 q=-0.0 size=N/A time=00:04:54.29 bitrate=N/A speed=7.82x    frame= 7158 fps=188 q=-0.0 size=N/A time=00:04:58.54 bitrate=N/A speed=7.82x    frame= 7256 fps=188 q=-0.0 size=N/A time=00:05:02.63 bitrate=N/A speed=7.83x    frame= 7353 fps=188 q=-0.0 size=N/A time=00:05:06.68 bitrate=N/A speed=7.83x    frame= 7457 fps=188 q=-0.0 size=N/A time=00:05:11.01 bitrate=N/A speed=7.83x    frame= 7547 fps=188 q=-0.0 size=N/A time=00:05:14.77 bitrate=N/A speed=7.83x    frame= 7649 fps=188 q=-0.0 size=N/A time=00:05:19.02 bitrate=N/A speed=7.83x    frame= 7748 fps=188 q=-0.0 size=N/A time=00:05:23.15 bitrate=N/A speed=7.83x    frame= 7853 fps=188 q=-0.0 size=N/A time=00:05:27.53 bitrate=N/A speed=7.84x    frame= 7953 fps=188 q=-0.0 size=N/A time=00:05:31.70 bitrate=N/A speed=7.85x    frame= 8043 fps=188 q=-0.0 size=N/A time=00:05:35.46 bitrate=N/A speed=7.84x    frame= 8149 fps=188 q=-0.0 size=N/A time=00:05:39.88 bitrate=N/A speed=7.85x    frame= 8243 fps=188 q=-0.0 size=N/A time=00:05:43.80 bitrate=N/A speed=7.85x    frame= 8339 fps=188 q=-0.0 size=N/A time=00:05:47.80 bitrate=N/A speed=7.84x    frame= 8446 fps=188 q=-0.0 size=N/A time=00:05:52.26 bitrate=N/A speed=7.85x    frame= 8542 fps=188 q=-0.0 size=N/A time=00:05:56.27 bitrate=N/A speed=7.85x    frame= 8633 fps=188 q=-0.0 size=N/A time=00:06:00.06 bitrate=N/A speed=7.85x    frame= 8742 fps=188 q=-0.0 size=N/A time=00:06:04.61 bitrate=N/A speed=7.86x    frame= 8839 fps=188 q=-0.0 size=N/A time=00:06:08.65 bitrate=N/A speed=7.86x    frame= 8927 fps=188 q=-0.0 size=N/A time=00:06:12.33 bitrate=N/A speed=7.85x    frame= 9041 fps=189 q=-0.0 size=N/A time=00:06:17.08 bitrate=N/A speed=7.86x    frame= 9138 fps=189 q=-0.0 size=N/A time=00:06:21.13 bitrate=N/A speed=7.86x    frame= 9241 fps=189 q=-0.0 size=N/A time=00:06:25.42 bitrate=N/A speed=7.87x    frame= 9342 fps=189 q=-0.0 size=N/A time=00:06:29.63 bitrate=N/A speed=7.87x    frame= 9442 fps=189 q=-0.0 size=N/A time=00:06:33.81 bitrate=N/A speed=7.88x    frame= 9539 fps=189 q=-0.0 size=N/A time=00:06:37.85 bitrate=N/A speed=7.87x    frame= 9639 fps=189 q=-0.0 size=N/A time=00:06:42.02 bitrate=N/A speed=7.88x    frame= 9738 fps=189 q=-0.0 size=N/A time=00:06:46.15 bitrate=N/A speed=7.88x    frame= 9842 fps=189 q=-0.0 size=N/A time=00:06:50.49 bitrate=N/A speed=7.88x    frame= 9933 fps=189 q=-0.0 size=N/A time=00:06:54.28 bitrate=N/A speed=7.88x    frame=10040 fps=189 q=-0.0 size=N/A time=00:06:58.75 bitrate=N/A speed=7.89x    frame=10138 fps=189 q=-0.0 size=N/A time=00:07:02.83 bitrate=N/A speed=7.89x    frame=10234 fps=189 q=-0.0 size=N/A time=00:07:06.84 bitrate=N/A speed=7.88x    frame=10336 fps=189 q=-0.0 size=N/A time=00:07:11.09 bitrate=N/A speed=7.89x    frame=10445 fps=189 q=-0.0 size=N/A time=00:07:15.64 bitrate=N/A speed= 7.9x    frame=10545 fps=189 q=-0.0 size=N/A time=00:07:19.81 bitrate=N/A speed= 7.9x    frame=10644 fps=189 q=-0.0 size=N/A time=00:07:23.94 bitrate=N/A speed= 7.9x    frame=10748 fps=190 q=-0.0 size=N/A time=00:07:28.28 bitrate=N/A speed= 7.9x    frame=10843 fps=189 q=-0.0 size=N/A time=00:07:32.24 bitrate=N/A speed= 7.9x    frame=10941 fps=189 q=-0.0 size=N/A time=00:07:36.33 bitrate=N/A speed= 7.9x    frame=11040 fps=189 q=-0.0 size=N/A time=00:07:40.46 bitrate=N/A speed= 7.9x    frame=11138 fps=190 q=-0.0 size=N/A time=00:07:44.54 bitrate=N/A speed= 7.9x    frame=11236 fps=189 q=-0.0 size=N/A time=00:07:48.63 bitrate=N/A speed= 7.9x    frame=11335 fps=190 q=-0.0 size=N/A time=00:07:52.76 bitrate=N/A speed= 7.9x    frame=11429 fps=189 q=-0.0 size=N/A time=00:07:56.68 bitrate=N/A speed= 7.9x    frame=11534 fps=190 q=-0.0 size=N/A time=00:08:01.06 bitrate=N/A speed=7.91x    frame=11632 fps=190 q=-0.0 size=N/A time=00:08:05.15 bitrate=N/A speed=7.91x    frame=11734 fps=190 q=-0.0 size=N/A time=00:08:09.40 bitrate=N/A speed=7.91x    frame=11833 fps=190 q=-0.0 size=N/A time=00:08:13.53 bitrate=N/A speed=7.91x    frame=11927 fps=190 q=-0.0 size=N/A time=00:08:17.45 bitrate=N/A speed=7.91x    frame=12026 fps=190 q=-0.0 size=N/A time=00:08:21.58 bitrate=N/A speed=7.91x    frame=12132 fps=190 q=-0.0 size=N/A time=00:08:26.00 bitrate=N/A speed=7.91x    frame=12227 fps=190 q=-0.0 size=N/A time=00:08:29.96 bitrate=N/A speed=7.91x    frame=12329 fps=190 q=-0.0 size=N/A time=00:08:34.22 bitrate=N/A speed=7.91x    frame=12427 fps=190 q=-0.0 size=N/A time=00:08:38.30 bitrate=N/A speed=7.92x    frame=12526 fps=190 q=-0.0 size=N/A time=00:08:42.43 bitrate=N/A speed=7.92x    frame=12627 fps=190 q=-0.0 size=N/A time=00:08:46.65 bitrate=N/A speed=7.92x    frame=12725 fps=190 q=-0.0 size=N/A time=00:08:50.73 bitrate=N/A speed=7.92x    frame=12821 fps=190 q=-0.0 size=N/A time=00:08:54.74 bitrate=N/A speed=7.92x    frame=12926 fps=190 q=-0.0 size=N/A time=00:08:59.12 bitrate=N/A speed=7.92x    frame=13026 fps=190 q=-0.0 size=N/A time=00:09:03.29 bitrate=N/A speed=7.92x    frame=13127 fps=190 q=-0.0 size=N/A time=00:09:07.50 bitrate=N/A speed=7.92x    frame=13227 fps=190 q=-0.0 size=N/A time=00:09:11.67 bitrate=N/A speed=7.93x    frame=13318 fps=190 q=-0.0 size=N/A time=00:09:15.47 bitrate=N/A speed=7.92x    frame=13429 fps=190 q=-0.0 size=N/A time=00:09:20.10 bitrate=N/A speed=7.93x    frame=13526 fps=190 q=-0.0 size=N/A time=00:09:24.14 bitrate=N/A speed=7.93x    frame=13624 fps=190 q=-0.0 size=N/A time=00:09:28.23 bitrate=N/A speed=7.93x    frame=13721 fps=190 q=-0.0 size=N/A time=00:09:32.28 bitrate=N/A speed=7.93x    frame=13818 fps=190 q=-0.0 size=N/A time=00:09:36.32 bitrate=N/A speed=7.93x    frame=13925 fps=190 q=-0.0 size=N/A time=00:09:40.78 bitrate=N/A speed=7.93x    frame=14021 fps=190 q=-0.0 size=N/A time=00:09:44.79 bitrate=N/A speed=7.93x    frame=14124 fps=190 q=-0.0 size=N/A time=00:09:49.08 bitrate=N/A speed=7.93x    frame=14224 fps=190 q=-0.0 size=N/A time=00:09:53.25 bitrate=N/A speed=7.94x    frame=14324 fps=190 q=-0.0 size=N/A time=00:09:57.43 bitrate=N/A speed=7.94x    frame=14419 fps=190 q=-0.0 size=N/A time=00:10:01.39 bitrate=N/A speed=7.94x    frame=14516 fps=190 q=-0.0 size=N/A time=00:10:05.43 bitrate=N/A speed=7.93x    frame=14627 fps=190 q=-0.0 size=N/A time=00:10:10.06 bitrate=N/A speed=7.94x    frame=14723 fps=190 q=-0.0 size=N/A time=00:10:14.07 bitrate=N/A speed=7.94x    frame=14821 fps=190 q=-0.0 size=N/A time=00:10:18.15 bitrate=N/A speed=7.94x    frame=14914 fps=190 q=-0.0 size=N/A time=00:10:22.03 bitrate=N/A speed=7.94x    frame=15015 fps=190 q=-0.0 size=N/A time=00:10:26.25 bitrate=N/A speed=7.94x    frame=15117 fps=190 q=-0.0 size=N/A time=00:10:30.50 bitrate=N/A speed=7.94x    frame=15210 fps=190 q=-0.0 size=N/A time=00:10:34.38 bitrate=N/A speed=7.94x    frame=15314 fps=190 q=-0.0 size=N/A time=00:10:38.72 bitrate=N/A speed=7.94x    frame=15413 fps=190 q=-0.0 size=N/A time=00:10:42.85 bitrate=N/A speed=7.94x    frame=15510 fps=190 q=-0.0 size=N/A time=00:10:46.89 bitrate=N/A speed=7.94x    frame=15604 fps=190 q=-0.0 size=N/A time=00:10:50.81 bitrate=N/A speed=7.94x    frame=15706 fps=190 q=-0.0 size=N/A time=00:10:55.07 bitrate=N/A speed=7.94x    frame=15802 fps=190 q=-0.0 size=N/A time=00:10:59.07 bitrate=N/A speed=7.94x    frame=15900 fps=190 q=-0.0 size=N/A time=00:11:03.16 bitrate=N/A speed=7.94x    frame=15996 fps=190 q=-0.0 size=N/A time=00:11:07.16 bitrate=N/A speed=7.94x    frame=16092 fps=190 q=-0.0 size=N/A time=00:11:11.17 bitrate=N/A speed=7.94x    frame=16195 fps=190 q=-0.0 size=N/A time=00:11:15.46 bitrate=N/A speed=7.94x    frame=16290 fps=190 q=-0.0 size=N/A time=00:11:19.42 bitrate=N/A speed=7.94x    frame=16395 fps=190 q=-0.0 size=N/A time=00:11:23.80 bitrate=N/A speed=7.94x    frame=16492 fps=190 q=-0.0 size=N/A time=00:11:27.85 bitrate=N/A speed=7.94x    frame=16583 fps=190 q=-0.0 size=N/A time=00:11:31.64 bitrate=N/A speed=7.94x    frame=16681 fps=190 q=-0.0 size=N/A time=00:11:35.73 bitrate=N/A speed=7.94x    frame=16772 fps=190 q=-0.0 size=N/A time=00:11:39.53 bitrate=N/A speed=7.93x    frame=16872 fps=190 q=-0.0 size=N/A time=00:11:43.70 bitrate=N/A speed=7.94x    frame=16972 fps=190 q=-0.0 size=N/A time=00:11:47.87 bitrate=N/A speed=7.94x    frame=17064 fps=190 q=-0.0 size=N/A time=00:11:51.71 bitrate=N/A speed=7.93x    frame=17169 fps=190 q=-0.0 size=N/A time=00:11:56.09 bitrate=N/A speed=7.94x    frame=17268 fps=190 q=-0.0 size=N/A time=00:12:00.21 bitrate=N/A speed=7.94x    frame=17365 fps=190 q=-0.0 size=N/A time=00:12:04.26 bitrate=N/A speed=7.94x    frame=17458 fps=190 q=-0.0 size=N/A time=00:12:08.14 bitrate=N/A speed=7.93x    frame=17559 fps=190 q=-0.0 size=N/A time=00:12:12.35 bitrate=N/A speed=7.93x    frame=17656 fps=190 q=-0.0 size=N/A time=00:12:16.40 bitrate=N/A speed=7.93x    frame=17750 fps=190 q=-0.0 size=N/A time=00:12:20.32 bitrate=N/A speed=7.93x    frame=17847 fps=190 q=-0.0 size=N/A time=00:12:24.36 bitrate=N/A speed=7.93x    frame=17941 fps=190 q=-0.0 size=N/A time=00:12:28.28 bitrate=N/A speed=7.93x    frame=18035 fps=190 q=-0.0 size=N/A time=00:12:32.20 bitrate=N/A speed=7.93x    frame=18141 fps=190 q=-0.0 size=N/A time=00:12:36.63 bitrate=N/A speed=7.93x    frame=18237 fps=190 q=-0.0 size=N/A time=00:12:40.63 bitrate=N/A speed=7.93x    frame=18335 fps=190 q=-0.0 size=N/A time=00:12:44.72 bitrate=N/A speed=7.93x    frame=18433 fps=190 q=-0.0 size=N/A time=00:12:48.80 bitrate=N/A speed=7.93x    frame=18525 fps=190 q=-0.0 size=N/A time=00:12:52.64 bitrate=N/A speed=7.93x    frame=18622 fps=190 q=-0.0 size=N/A time=00:12:56.69 bitrate=N/A speed=7.93x    frame=18729 fps=190 q=-0.0 size=N/A time=00:13:01.15 bitrate=N/A speed=7.93x    frame=18815 fps=190 q=-0.0 size=N/A time=00:13:04.74 bitrate=N/A speed=7.93x    frame=18923 fps=190 q=-0.0 size=N/A time=00:13:09.24 bitrate=N/A speed=7.93x    frame=19015 fps=190 q=-0.0 size=N/A time=00:13:13.08 bitrate=N/A speed=7.93x    frame=19120 fps=190 q=-0.0 size=N/A time=00:13:17.46 bitrate=N/A speed=7.93x    frame=19211 fps=190 q=-0.0 size=N/A time=00:13:21.25 bitrate=N/A speed=7.93x    frame=19318 fps=190 q=-0.0 size=N/A time=00:13:25.72 bitrate=N/A speed=7.93x    frame=19417 fps=190 q=-0.0 size=N/A time=00:13:29.85 bitrate=N/A speed=7.93x    frame=19509 fps=190 q=-0.0 size=N/A time=00:13:33.68 bitrate=N/A speed=7.93x    frame=19616 fps=190 q=-0.0 size=N/A time=00:13:38.15 bitrate=N/A speed=7.93x    frame=19715 fps=190 q=-0.0 size=N/A time=00:13:42.27 bitrate=N/A speed=7.93x    frame=19806 fps=190 q=-0.0 size=N/A time=00:13:46.07 bitrate=N/A speed=7.93x    frame=19914 fps=190 q=-0.0 size=N/A time=00:13:50.57 bitrate=N/A speed=7.93x    frame=20003 fps=190 q=-0.0 size=N/A time=00:13:54.29 bitrate=N/A speed=7.93x    frame=20109 fps=190 q=-0.0 size=N/A time=00:13:58.71 bitrate=N/A speed=7.93x    frame=20207 fps=190 q=-0.0 size=N/A time=00:14:02.80 bitrate=N/A speed=7.93x    frame=20304 fps=190 q=-0.0 size=N/A time=00:14:06.84 bitrate=N/A speed=7.93x    frame=20403 fps=190 q=-0.0 size=N/A time=00:14:10.97 bitrate=N/A speed=7.93x    frame=20494 fps=190 q=-0.0 size=N/A time=00:14:14.77 bitrate=N/A speed=7.93x    frame=20600 fps=190 q=-0.0 size=N/A time=00:14:19.19 bitrate=N/A speed=7.93x    frame=20691 fps=190 q=-0.0 size=N/A time=00:14:22.98 bitrate=N/A speed=7.93x    frame=20799 fps=190 q=-0.0 size=N/A time=00:14:27.49 bitrate=N/A speed=7.93x    frame=20895 fps=190 q=-0.0 size=N/A time=00:14:31.49 bitrate=N/A speed=7.93x    frame=20993 fps=190 q=-0.0 size=N/A time=00:14:35.58 bitrate=N/A speed=7.93x    frame=21092 fps=190 q=-0.0 size=N/A time=00:14:39.71 bitrate=N/A speed=7.93x    frame=21190 fps=190 q=-0.0 size=N/A time=00:14:43.79 bitrate=N/A speed=7.94x    frame=21280 fps=190 q=-0.0 size=N/A time=00:14:47.55 bitrate=N/A speed=7.93x    frame=21389 fps=190 q=-0.0 size=N/A time=00:14:52.09 bitrate=N/A speed=7.94x    frame=21485 fps=190 q=-0.0 size=N/A time=00:14:56.10 bitrate=N/A speed=7.93x    frame=21576 fps=190 q=-0.0 size=N/A time=00:14:59.89 bitrate=N/A speed=7.93x    frame=21680 fps=190 q=-0.0 size=N/A time=00:15:04.23 bitrate=N/A speed=7.93x    frame=21772 fps=190 q=-0.0 size=N/A time=00:15:08.07 bitrate=N/A speed=7.93x    frame=21872 fps=190 q=-0.0 size=N/A time=00:15:12.24 bitrate=N/A speed=7.93x    frame=21977 fps=190 q=-0.0 size=N/A time=00:15:16.62 bitrate=N/A speed=7.94x    frame=22077 fps=190 q=-0.0 size=N/A time=00:15:20.79 bitrate=N/A speed=7.94x    frame=22176 fps=190 q=-0.0 size=N/A time=00:15:24.92 bitrate=N/A speed=7.94x    frame=22276 fps=190 q=-0.0 size=N/A time=00:15:29.09 bitrate=N/A speed=7.94x    frame=22368 fps=190 q=-0.0 size=N/A time=00:15:32.93 bitrate=N/A speed=7.93x    frame=22472 fps=190 q=-0.0 size=N/A time=00:15:37.26 bitrate=N/A speed=7.94x    frame=22565 fps=190 q=-0.0 size=N/A time=00:15:41.14 bitrate=N/A speed=7.94x    frame=22663 fps=190 q=-0.0 size=N/A time=00:15:45.23 bitrate=N/A speed=7.94x    frame=22768 fps=190 q=-0.0 size=N/A time=00:15:49.61 bitrate=N/A speed=7.94x    frame=22863 fps=190 q=-0.0 size=N/A time=00:15:53.57 bitrate=N/A speed=7.94x    frame=22957 fps=190 q=-0.0 size=N/A time=00:15:57.49 bitrate=N/A speed=7.93x    frame=23054 fps=190 q=-0.0 size=N/A time=00:16:01.54 bitrate=N/A speed=7.94x    frame=23170 fps=190 q=-0.0 size=N/A time=00:16:06.38 bitrate=N/A speed=7.94x    frame=23267 fps=190 q=-0.0 size=N/A time=00:16:10.42 bitrate=N/A speed=7.94x    frame=23368 fps=190 q=-0.0 size=N/A time=00:16:14.64 bitrate=N/A speed=7.94x    frame=23450 fps=190 q=-0.0 size=N/A time=00:16:18.06 bitrate=N/A speed=7.94x    frame=23561 fps=190 q=-0.0 size=N/A time=00:16:22.69 bitrate=N/A speed=7.94x    frame=23655 fps=190 q=-0.0 size=N/A time=00:16:26.61 bitrate=N/A speed=7.94x    frame=23754 fps=190 q=-0.0 size=N/A time=00:16:30.73 bitrate=N/A speed=7.94x    frame=23853 fps=190 q=-0.0 size=N/A time=00:16:34.86 bitrate=N/A speed=7.94x    frame=23951 fps=190 q=-0.0 size=N/A time=00:16:38.95 bitrate=N/A speed=7.94x    frame=24052 fps=190 q=-0.0 size=N/A time=00:16:43.16 bitrate=N/A speed=7.94x    frame=24155 fps=190 q=-0.0 size=N/A time=00:16:47.46 bitrate=N/A speed=7.94x    frame=24250 fps=190 q=-0.0 size=N/A time=00:16:51.42 bitrate=N/A speed=7.94x    frame=24347 fps=190 q=-0.0 size=N/A time=00:16:55.47 bitrate=N/A speed=7.94x    frame=24448 fps=190 q=-0.0 size=N/A time=00:16:59.68 bitrate=N/A speed=7.94x    frame=24533 fps=190 q=-0.0 size=N/A time=00:17:03.23 bitrate=N/A speed=7.94x    frame=24641 fps=190 q=-0.0 size=N/A time=00:17:07.73 bitrate=N/A speed=7.94x    frame=24732 fps=190 q=-0.0 size=N/A time=00:17:11.53 bitrate=N/A speed=7.94x    frame=24836 fps=190 q=-0.0 size=N/A time=00:17:15.86 bitrate=N/A speed=7.94x    frame=24935 fps=190 q=-0.0 size=N/A time=00:17:19.99 bitrate=N/A speed=7.94x    frame=25022 fps=190 q=-0.0 size=N/A time=00:17:23.62 bitrate=N/A speed=7.93x    frame=25122 fps=190 q=-0.0 size=N/A time=00:17:27.79 bitrate=N/A speed=7.94x    frame=25230 fps=190 q=-0.0 size=N/A time=00:17:32.30 bitrate=N/A speed=7.94x    frame=25324 fps=190 q=-0.0 size=N/A time=00:17:36.22 bitrate=N/A speed=7.94x    frame=25427 fps=190 q=-0.0 size=N/A time=00:17:40.51 bitrate=N/A speed=7.94x    frame=25526 fps=190 q=-0.0 size=N/A time=00:17:44.64 bitrate=N/A speed=7.94x    frame=25614 fps=190 q=-0.0 size=N/A time=00:17:48.31 bitrate=N/A speed=7.94x    frame=25722 fps=190 q=-0.0 size=N/A time=00:17:52.82 bitrate=N/A speed=7.94x    frame=25823 fps=190 q=-0.0 size=N/A time=00:17:57.03 bitrate=N/A speed=7.94x    frame=25922 fps=190 q=-0.0 size=N/A time=00:18:01.16 bitrate=N/A speed=7.94x    frame=26018 fps=190 q=-0.0 size=N/A time=00:18:05.16 bitrate=N/A speed=7.94x    frame=26107 fps=190 q=-0.0 size=N/A time=00:18:08.87 bitrate=N/A speed=7.94x    frame=26215 fps=190 q=-0.0 size=N/A time=00:18:13.38 bitrate=N/A speed=7.94x    frame=26313 fps=190 q=-0.0 size=N/A time=00:18:17.47 bitrate=N/A speed=7.94x    frame=26414 fps=190 q=-0.0 size=N/A time=00:18:21.68 bitrate=N/A speed=7.94x    frame=26509 fps=190 q=-0.0 size=N/A time=00:18:25.64 bitrate=N/A speed=7.94x    frame=26610 fps=190 q=-0.0 size=N/A time=00:18:29.85 bitrate=N/A speed=7.94x    frame=26706 fps=190 q=-0.0 size=N/A time=00:18:33.86 bitrate=N/A speed=7.94x    frame=26805 fps=190 q=-0.0 size=N/A time=00:18:37.99 bitrate=N/A speed=7.94x    frame=26894 fps=190 q=-0.0 size=N/A time=00:18:41.70 bitrate=N/A speed=7.94x    frame=26998 fps=190 q=-0.0 size=N/A time=00:18:46.04 bitrate=N/A speed=7.94x    frame=27088 fps=190 q=-0.0 size=N/A time=00:18:49.79 bitrate=N/A speed=7.94x    frame=27197 fps=190 q=-0.0 size=N/A time=00:18:54.34 bitrate=N/A speed=7.94x    frame=27286 fps=190 q=-0.0 size=N/A time=00:18:58.05 bitrate=N/A speed=7.94x    frame=27389 fps=190 q=-0.0 size=N/A time=00:19:02.34 bitrate=N/A speed=7.94x    frame=27496 fps=190 q=-0.0 size=N/A time=00:19:06.81 bitrate=N/A speed=7.94x    frame=27594 fps=190 q=-0.0 size=N/A time=00:19:10.89 bitrate=N/A speed=7.94x    frame=27688 fps=190 q=-0.0 size=N/A time=00:19:14.82 bitrate=N/A speed=7.94x    frame=27790 fps=190 q=-0.0 size=N/A time=00:19:19.07 bitrate=N/A speed=7.94x    frame=27890 fps=190 q=-0.0 size=N/A time=00:19:23.24 bitrate=N/A speed=7.94x    frame=27987 fps=190 q=-0.0 size=N/A time=00:19:27.29 bitrate=N/A speed=7.94x    frame=28079 fps=190 q=-0.0 size=N/A time=00:19:31.12 bitrate=N/A speed=7.94x    frame=28179 fps=190 q=-0.0 size=N/A time=00:19:35.29 bitrate=N/A speed=7.94x    frame=28274 fps=190 q=-0.0 size=N/A time=00:19:39.26 bitrate=N/A speed=7.94x    frame=28371 fps=190 q=-0.0 size=N/A time=00:19:43.30 bitrate=N/A speed=7.94x    frame=28460 fps=190 q=-0.0 size=N/A time=00:19:47.01 bitrate=N/A speed=7.93x    frame=28569 fps=190 q=-0.0 size=N/A time=00:19:51.56 bitrate=N/A speed=7.94x    frame=28659 fps=190 q=-0.0 size=N/A time=00:19:55.31 bitrate=N/A speed=7.94x    frame=28760 fps=190 q=-0.0 size=N/A time=00:19:59.53 bitrate=N/A speed=7.94x    frame=28857 fps=190 q=-0.0 size=N/A time=00:20:03.57 bitrate=N/A speed=7.94x    frame=28960 fps=190 q=-0.0 size=N/A time=00:20:07.87 bitrate=N/A speed=7.94x    frame=29065 fps=190 q=-0.0 size=N/A time=00:20:12.25 bitrate=N/A speed=7.94x    frame=29162 fps=190 q=-0.0 size=N/A time=00:20:16.29 bitrate=N/A speed=7.94x    frame=29261 fps=190 q=-0.0 size=N/A time=00:20:20.42 bitrate=N/A speed=7.94x    frame=29359 fps=190 q=-0.0 size=N/A time=00:20:24.51 bitrate=N/A speed=7.94x    frame=29455 fps=190 q=-0.0 size=N/A time=00:20:28.51 bitrate=N/A speed=7.94x    frame=29558 fps=190 q=-0.0 size=N/A time=00:20:32.81 bitrate=N/A speed=7.94x    frame=29656 fps=190 q=-0.0 size=N/A time=00:20:36.90 bitrate=N/A speed=7.94x    frame=29757 fps=190 q=-0.0 size=N/A time=00:20:41.11 bitrate=N/A speed=7.94x    frame=29855 fps=190 q=-0.0 size=N/A time=00:20:45.20 bitrate=N/A speed=7.94x    frame=29953 fps=190 q=-0.0 size=N/A time=00:20:49.28 bitrate=N/A speed=7.94x    frame=30051 fps=190 q=-0.0 size=N/A time=00:20:53.37 bitrate=N/A speed=7.94x    frame=30156 fps=190 q=-0.0 size=N/A time=00:20:57.75 bitrate=N/A speed=7.94x    frame=30254 fps=190 q=-0.0 size=N/A time=00:21:01.84 bitrate=N/A speed=7.94x    frame=30356 fps=190 q=-0.0 size=N/A time=00:21:06.09 bitrate=N/A speed=7.94x    frame=30450 fps=190 q=-0.0 size=N/A time=00:21:10.01 bitrate=N/A speed=7.94x    frame=30550 fps=190 q=-0.0 size=N/A time=00:21:14.18 bitrate=N/A speed=7.94x    frame=30649 fps=190 q=-0.0 size=N/A time=00:21:18.31 bitrate=N/A speed=7.94x    frame=30745 fps=190 q=-0.0 size=N/A time=00:21:22.32 bitrate=N/A speed=7.94x    frame=30845 fps=190 q=-0.0 size=N/A time=00:21:26.49 bitrate=N/A speed=7.94x    frame=30942 fps=190 q=-0.0 size=N/A time=00:21:30.53 bitrate=N/A speed=7.94x    frame=31037 fps=190 q=-0.0 size=N/A time=00:21:34.50 bitrate=N/A speed=7.94x    frame=31132 fps=190 q=-0.0 size=N/A time=00:21:38.46 bitrate=N/A speed=7.94x    frame=31228 fps=190 q=-0.0 size=N/A time=00:21:42.46 bitrate=N/A speed=7.94x    frame=31322 fps=190 q=-0.0 size=N/A time=00:21:46.38 bitrate=N/A speed=7.94x    frame=31416 fps=190 q=-0.0 size=N/A time=00:21:50.30 bitrate=N/A speed=7.94x    frame=31520 fps=190 q=-0.0 size=N/A time=00:21:54.64 bitrate=N/A speed=7.94x    frame=31621 fps=190 q=-0.0 size=N/A time=00:21:58.85 bitrate=N/A speed=7.94x    frame=31721 fps=190 q=-0.0 size=N/A time=00:22:03.03 bitrate=N/A speed=7.94x    frame=31825 fps=190 q=-0.0 size=N/A time=00:22:07.36 bitrate=N/A speed=7.94x    frame=31924 fps=190 q=-0.0 size=N/A time=00:22:11.49 bitrate=N/A speed=7.94x    frame=32026 fps=190 q=-0.0 size=N/A time=00:22:15.75 bitrate=N/A speed=7.94x    frame=32123 fps=190 q=-0.0 size=N/A time=00:22:19.79 bitrate=N/A speed=7.94x    frame=32219 fps=190 q=-0.0 size=N/A time=00:22:23.80 bitrate=N/A speed=7.94x    frame=32320 fps=190 q=-0.0 size=N/A time=00:22:28.01 bitrate=N/A speed=7.94x    frame=32418 fps=190 q=-0.0 size=N/A time=00:22:32.10 bitrate=N/A speed=7.94x    frame=32519 fps=190 q=-0.0 size=N/A time=00:22:36.31 bitrate=N/A speed=7.94x    frame=32618 fps=190 q=-0.0 size=N/A time=00:22:40.44 bitrate=N/A speed=7.94x    frame=32716 fps=190 q=-0.0 size=N/A time=00:22:44.52 bitrate=N/A speed=7.94x    frame=32810 fps=190 q=-0.0 size=N/A time=00:22:48.45 bitrate=N/A speed=7.94x    frame=32904 fps=190 q=-0.0 size=N/A time=00:22:52.37 bitrate=N/A speed=7.94x    frame=33010 fps=190 q=-0.0 size=N/A time=00:22:56.79 bitrate=N/A speed=7.94x    frame=33107 fps=190 q=-0.0 size=N/A time=00:23:00.83 bitrate=N/A speed=7.94x    frame=33206 fps=190 q=-0.0 size=N/A time=00:23:04.96 bitrate=N/A speed=7.94x    frame=33306 fps=190 q=-0.0 size=N/A time=00:23:09.13 bitrate=N/A speed=7.94x    frame=33394 fps=190 q=-0.0 size=N/A time=00:23:12.80 bitrate=N/A speed=7.94x    frame=33492 fps=190 q=-0.0 size=N/A time=00:23:16.89 bitrate=N/A speed=7.94x    frame=33598 fps=190 q=-0.0 size=N/A time=00:23:21.31 bitrate=N/A speed=7.94x    frame=33687 fps=190 q=-0.0 size=N/A time=00:23:25.02 bitrate=N/A speed=7.94x    frame=33794 fps=190 q=-0.0 size=N/A time=00:23:29.49 bitrate=N/A speed=7.94x    frame=33893 fps=190 q=-0.0 size=N/A time=00:23:33.62 bitrate=N/A speed=7.94x    frame=33993 fps=190 q=-0.0 size=N/A time=00:23:37.79 bitrate=N/A speed=7.94x    [Parsed_psnr_10 @ 00000168c6989040] PSNR y:45.628687 u:50.806745 v:50.284852 average:46.739588 min:36.379941 max:75.202316
[out#0/null @ 00000168c3f1c100] video:14628KiB audio:266236KiB subtitle:0KiB other streams:0KiB global headers:0KiB muxing overhead: unknown
frame=34043 fps=190 q=-0.0 Lsize=N/A time=00:23:39.87 bitrate=N/A speed=7.94x    
